<?xml version="1.0" standalone="no"?>
<!DOCTYPE svg PUBLIC "-//W3C//DTD SVG 20010904//EN"
 "http://www.w3.org/TR/2001/REC-SVG-20010904/DTD/svg10.dtd">
<svg version="1.0" xmlns="http://www.w3.org/2000/svg"
 width="635.000000pt" height="635.000000pt" viewBox="0 0 635.000000 635.000000"
 preserveAspectRatio="xMidYMid meet">
<metadata>
Created by potrace 1.11, written by Peter Selinger 2001-2013
</metadata>
<g transform="translate(0.000000,635.000000) scale(0.100000,-0.100000)"
fill="#000000" stroke="none">
<path d="M917 6325 c-223 -38 -430 -146 -592 -309 -179 -180 -283 -398 -315
-656 -14 -117 -14 -4253 0 -4370 32 -258 136 -476 315 -656 122 -124 249 -203
419 -263 181 -64 57 -61 2427 -61 1902 0 2167 2 2245 15 428 75 756 371 881
796 l28 94 3 2713 2 2712 -2667 -1 c-2154 -1 -2683 -4 -2746 -14z m4301 -854
c-8 -23 -1524 -2290 -1531 -2291 -4 0 -106 149 -226 331 l-219 331 212 321
c538 816 776 1166 818 1202 49 42 141 91 196 104 50 12 755 14 750 2z m-2728
-958 c36 -17 80 -47 98 -66 19 -19 247 -354 506 -743 l473 -709 -517 -775
c-353 -529 -529 -784 -554 -803 -20 -16 -62 -40 -94 -55 l-57 -27 -387 -3
-388 -3 553 833 554 832 -514 774 c-282 425 -513 775 -513 778 0 3 174 3 388
2 l387 -3 65 -32z m1690 -2435 c267 -402 487 -734 488 -739 2 -5 -153 -9 -362
-9 -549 0 -515 -20 -852 488 -126 191 -211 328 -207 335 64 104 435 657 441
656 4 0 225 -329 492 -731z"/>
</g>
</svg>
