<?xml version="1.0" standalone="no"?>
<!DOCTYPE svg PUBLIC "-//W3C//DTD SVG 20010904//EN"
 "http://www.w3.org/TR/2001/REC-SVG-20010904/DTD/svg10.dtd">
<svg version="1.0" xmlns="http://www.w3.org/2000/svg"
 width="164.000000pt" height="164.000000pt" viewBox="0 0 164.000000 164.000000"
 preserveAspectRatio="xMidYMid meet">
<metadata>
Created by potrace 1.11, written by Peter Selinger 2001-2013
</metadata>
<g transform="translate(0.000000,164.000000) scale(0.100000,-0.100000)"
fill="#000000" stroke="none">
<path d="M297 1620 c-136 -43 -241 -150 -281 -289 -23 -79 -23 -943 0 -1022
21 -73 57 -132 115 -190 54 -54 98 -79 178 -103 79 -23 942 -23 1022 0 142 41
252 151 293 292 23 79 24 929 1 1017 -37 139 -138 246 -278 294 -55 19 -84 20
-525 20 -427 0 -472 -2 -525 -19z"/>
</g>
</svg>
