<?xml version="1.0" standalone="no"?>
<!DOCTYPE svg PUBLIC "-//W3C//DTD SVG 20010904//EN"
 "http://www.w3.org/TR/2001/REC-SVG-20010904/DTD/svg10.dtd">
<svg version="1.0" xmlns="http://www.w3.org/2000/svg"
 width="930.000000pt" height="930.000000pt" viewBox="0 0 930.000000 930.000000"
 preserveAspectRatio="xMidYMid meet">
<metadata>
Created by potrace 1.11, written by Peter Selinger 2001-2013
</metadata>
<g transform="translate(0.000000,930.000000) scale(0.100000,-0.100000)"
fill="#000000" stroke="none">
<path d="M0 4650 l0 -4650 4650 0 4650 0 0 4650 0 4650 -4650 0 -4650 0 0
-4650z m5595 2151 c711 -103 962 -143 996 -158 59 -26 125 -92 153 -152 20
-43 21 -62 21 -281 l0 -235 -28 -57 c-34 -70 -101 -131 -170 -155 -49 -17
-145 -18 -1917 -18 -1772 0 -1868 1 -1917 18 -69 24 -136 85 -170 155 -28 56
-28 60 -31 269 -4 246 4 291 67 370 77 98 34 88 1061 243 503 76 931 138 950
139 19 0 463 -62 985 -138z m1000 -1491 c59 -29 116 -84 147 -142 l23 -43 3
-1259 c2 -1133 1 -1265 -14 -1308 -21 -65 -99 -149 -166 -179 -52 -24 -57 -24
-388 -24 -331 0 -336 0 -388 24 -67 30 -145 114 -166 179 -15 43 -16 175 -14
1308 l3 1259 23 43 c43 80 121 141 207 163 17 4 176 7 355 6 323 -2 325 -2
375 -27z m-1572 4 c63 -21 130 -83 164 -152 l28 -57 0 -1260 0 -1260 -22 -47
c-30 -66 -102 -132 -170 -158 -53 -20 -71 -21 -387 -18 l-331 3 -58 29 c-39
19 -71 44 -97 78 -74 93 -70 12 -70 1373 0 1348 -3 1280 63 1367 35 45 92 88
142 106 19 6 155 11 361 11 276 1 338 -2 377 -15z"/>
</g>
</svg>
